<svg width="120" height="120" viewBox="0 0 120 120" fill="none" xmlns="http://www.w3.org/2000/svg">
  <!-- White Background with Black Border -->
  <rect x="5" y="5" width="110" height="110" rx="15" fill="white" stroke="#000000" stroke-width="2"/>
  
  <!-- Orange Border -->
  <rect x="10" y="10" width="100" height="100" rx="10" stroke="#EA580C" stroke-width="2"/>
  
  <!-- Code Brackets -->
  <path d="M35 40L25 60L35 80" stroke="#000000" stroke-width="6" stroke-linecap="round"/>
  <path d="M85 40L95 60L85 80" stroke="#000000" stroke-width="6" stroke-linecap="round"/>
  
  <!-- SA Initials -->
  <path d="M45 50L45 70L55 70L55 55L65 70L65 50L55 50L55 65L45 50Z" fill="#EA580C"/>
  <path d="M75 50L75 70L65 70L65 55L55 70L55 50L65 50L65 65L75 50Z" fill="#000000"/>
  
  <!-- Binary Pattern -->
  <circle cx="30" cy="30" r="2" fill="#EA580C"/>
  <circle cx="30" cy="35" r="2" fill="#000000"/>
  <circle cx="90" cy="30" r="2" fill="#000000"/>
  <circle cx="90" cy="35" r="2" fill="#EA580C"/>
  <circle cx="30" cy="85" r="2" fill="#000000"/>
  <circle cx="30" cy="90" r="2" fill="#EA580C"/>
  <circle cx="90" cy="85" r="2" fill="#EA580C"/>
  <circle cx="90" cy="90" r="2" fill="#000000"/>
</svg>